Coordinates
version=1
nRows=6
nColumns=36
inDegrees=yes

Units are S.I. units (second, meters, Newtons, ...)
If the header above contains a line with 'inDegrees', this indicates whether rotational values are in degrees (yes) or radians (no).

endheader
time	pelvis_tilt	pelvis_list	pelvis_rotation	pelvis_tx	pelvis_ty	pelvis_tz	hip_flexion_r	hip_adduction_r	hip_rotation_r	knee_angle_r	knee_angle_r_beta	ankle_angle_r	subtalar_angle_r	mtp_angle_r	hip_flexion_l	hip_adduction_l	hip_rotation_l	knee_angle_l	knee_angle_l_beta	ankle_angle_l	subtalar_angle_l	mtp_angle_l	lumbar_extension	lumbar_bending	lumbar_rotation	arm_flex_r	arm_add_r	arm_rot_r	elbow_flex_r	pro_sup_r	arm_flex_l	arm_add_l	arm_rot_l	elbow_flex_l	pro_sup_l
      0.00000000	     -0.92923147	      1.54683945	     -7.05533420	      0.77232894	      0.88702423	      0.04073049	     28.25184341	     -2.97851249	      2.94626297	     48.21755524	      0.84155510	      4.53612966	    -20.25480776	     -6.16092363	      6.83474737	      7.61775660	      2.86106360	     13.52988167	      0.23614098	     14.01173807	     -6.55785031	     -6.16092363	     -8.78629609	     -3.64440944	      0.30136694	      4.08736655	     -8.83988171	      8.53179525	     33.03610227	     88.80713029	     -4.70407337	    -14.11253163	     -7.75795114	     29.02182077	     87.79300758
      0.01666670	     -0.92340111	      0.98794467	     -6.66131518	      0.77284030	      0.88590349	      0.03901065	     27.90501294	     -3.05450619	      0.30535969	     45.67273783	      0.79713965	      6.60571655	    -18.18971728	     -6.20253267	      6.92963641	      7.24345953	      3.41591556	     14.54483746	      0.25385530	     15.51627760	     -7.27991133	     -6.20253267	     -8.59203124	     -3.12018357	      0.43925296	      3.39765296	     -9.24899003	      8.54411805	     33.95597277	     89.09780291	     -4.87055471	    -14.57727578	     -7.95474533	     29.73675320	     88.11657531
      0.03333330	     -0.67177793	      1.01314242	     -6.52413130	      0.77281281	      0.88587684	      0.03955498	     27.21919409	     -3.08041438	      0.08541365	     43.42164806	      0.75785073	      8.47754036	    -17.35519408	     -6.56303707	      6.45136800	      7.60522626	      4.96691607	     14.39185184	      0.25118520	     15.89366529	     -9.04708444	     -6.56303707	     -8.84765201	     -3.36257524	      1.47338246	      1.89204808	     -9.33223650	      5.53420352	     35.96246976	     96.06236930	     -4.29692341	    -15.14313496	     -9.11757799	     30.47898859	     96.37432449
      0.05000000	     -0.26704847	      0.52029668	     -6.43944892	      0.77329300	      0.88603956	      0.03891650	     26.31251845	     -2.64979587	     -0.20499304	     41.60302582	      0.72610978	      9.71403759	    -16.88427511	     -6.70441873	      5.70424201	      7.26421826	      5.10795666	     14.36881418	      0.25078312	     16.74829545	     -9.00275370	     -6.70441873	     -8.97395911	     -2.93303569	      1.57148064	      1.93968904	     -9.83780516	      7.02031090	     36.04197883	     95.51661728	     -4.46414823	    -15.49284259	     -8.92004195	     31.11174912	     95.93192592
      0.06666670	      0.28323467	      0.17311808	     -6.70712260	      0.77277342	      0.88702552	      0.03893950	     25.53096811	     -2.12257964	      0.24326486	     40.63406810	      0.70919828	     10.97225036	    -16.55746854	     -6.77395750	      5.04213691	      7.07559903	      4.90624720	     14.77113766	      0.25780499	     17.57678236	     -9.04990968	     -6.77395750	     -9.28171962	     -2.75820044	      2.23112571	      2.06644543	    -10.02974162	      7.19351245	     35.86885221	     94.93670466	     -4.29599200	    -15.60176140	     -9.12495645	     31.53454073	     95.41326601
      0.08333330	      0.75042158	     -0.16381078	     -6.97861201	      0.77247886	      0.88526845	      0.03843867	     24.91204000	     -1.67077117	      0.75731154	     40.23720151	      0.70227165	     12.17868787	    -16.44488059	     -6.89762109	      4.60776025	      6.86215320	      4.61891893	     15.29186048	      0.26689331	     18.49577782	     -8.54275745	     -6.89762109	     -9.59400153	     -2.51359478	      2.48995386	      2.36960035	    -10.40562511	      8.27950424	     35.88877807	     96.69339719	     -4.33504628	    -15.72286376	     -9.29817658	     31.86475156	     97.80415845
